<svg xmlns:xlink="http://www.w3.org/1999/xlink" width="72" height="24" viewBox="0 0 72 24" fill="none" xmlns="http://www.w3.org/2000/svg">
                                    <path d="M31.7311 6.87036C27.1254 6.87036 23.782 10.2328 23.782 14.8648V16.206C23.782 18.5208 24.6006 20.5015 26.1446 21.9333C27.5764 23.2673 29.5667 23.9999 31.7311 23.9999C34.244 23.9999 36.5946 23.0143 38.0217 21.3749C38.234 21.129 38.34 20.8088 38.3163 20.4848C38.2926 20.1608 38.1411 19.8595 37.8952 19.6471C37.7735 19.542 37.6322 19.4619 37.4795 19.4113C37.3267 19.3608 37.1656 19.3408 37.0051 19.3525C36.6811 19.3763 36.3798 19.5277 36.1675 19.7736C35.1986 20.8952 33.5424 21.5634 31.7311 21.5634C29.1586 21.5634 26.5646 20.1029 26.2615 16.8598H37.7449C38.2575 16.8598 38.7492 16.6562 39.1117 16.2937C39.4742 15.9312 39.6778 15.4395 39.6778 14.9268V14.6142C39.6778 10.049 36.4109 6.87036 31.7311 6.87036ZM26.2424 14.3994C26.4477 11.3854 28.6455 9.31881 31.7311 9.31881C34.4158 9.31881 37.1268 10.8914 37.2199 14.3994H26.2424Z" fill="#FFD31B"></path>
                                    <path d="M62.914 6.87036C61.2199 6.86989 59.5638 7.3718 58.155 8.31263C56.7462 9.25345 55.6481 10.5909 54.9994 12.1559C54.3508 13.7209 54.1809 15.443 54.5111 17.1046C54.8413 18.7662 55.6568 20.2925 56.8545 21.4905C58.0522 22.6886 59.5783 23.5045 61.2398 23.8352C62.9013 24.1659 64.6235 23.9964 66.1886 23.3482C67.7538 22.7 69.0916 21.6023 70.0328 20.1937C70.974 18.7852 71.4764 17.1292 71.4764 15.4351C71.4738 13.1648 70.571 10.9882 68.9659 9.38256C67.3607 7.77697 65.1843 6.87352 62.914 6.87036ZM64.7229 21.2794C63.1722 21.7592 61.4945 21.6033 60.0588 20.8461C58.6231 20.0888 57.547 18.7923 57.0673 17.2416C56.5876 15.691 56.7434 14.0133 57.5007 12.5776C58.2579 11.1419 59.5545 10.0658 61.1051 9.58608C62.2833 9.22023 63.5447 9.22023 64.7229 9.58608C65.9674 9.97696 67.0547 10.7548 67.8266 11.8063C68.5986 12.8579 69.0148 14.1283 69.0148 15.4328C69.0148 16.7372 68.5986 18.0077 67.8266 19.0592C67.0547 20.1108 65.9674 20.8886 64.7229 21.2794Z" fill="#FFD31B"></path>
                                    <path d="M57.9265 1.43174C57.9265 1.10706 57.7975 0.795673 57.5679 0.566087C57.3383 0.3365 57.0269 0.20752 56.7023 0.20752C50.5454 0.20752 45.9038 4.84907 45.9038 11.006V15.6976C45.9038 16.0223 46.0328 16.3337 46.2624 16.5633C46.492 16.7929 46.8033 16.9219 47.128 16.9219C47.4527 16.9219 47.7641 16.7929 47.9937 16.5633C48.2233 16.3337 48.3523 16.0223 48.3523 15.6976V11.0012C48.3523 6.16397 51.865 2.64881 56.7047 2.64881C57.0279 2.64881 57.3379 2.52073 57.5669 2.29263C57.7959 2.06452 57.9252 1.75497 57.9265 1.43174Z" fill="#FFD31B"></path>
                                    <path d="M46.0994 2.86368C46.3826 2.86368 46.6595 2.7797 46.8949 2.62237C47.1304 2.46504 47.3139 2.24142 47.4223 1.97978C47.5307 1.71815 47.559 1.43025 47.5038 1.1525C47.4485 0.874752 47.3121 0.619623 47.1119 0.419377C46.9117 0.21913 46.6565 0.0827609 46.3788 0.027513C46.101 -0.0277348 45.8131 0.000620396 45.5515 0.108993C45.2899 0.217365 45.0662 0.400888 44.9089 0.636353C44.7516 0.871818 44.6676 1.14865 44.6676 1.43184C44.6676 1.81159 44.8185 2.17578 45.087 2.4443C45.3555 2.71283 45.7197 2.86368 46.0994 2.86368Z" fill="#FFD31B"></path>
                                    <path d="M23.9035 2.6775C24.2301 2.63161 24.5251 2.45787 24.7236 2.1945C24.9221 1.93112 25.0078 1.59969 24.9619 1.2731C24.916 0.946521 24.7423 0.651543 24.4789 0.453061C24.2155 0.254578 23.8841 0.168851 23.5575 0.214737C20.4075 0.653834 19.0663 2.71807 17.6297 5.37174L13.0955 13.7623C12.759 14.3279 12.6182 14.3732 12.487 14.3804C12.3557 14.3876 12.2149 14.3279 11.8785 13.7623L7.34431 5.37174C5.91247 2.71807 4.55938 0.653834 1.4165 0.214737C1.08991 0.168851 0.758478 0.254578 0.495103 0.453061C0.231728 0.651543 0.0579863 0.946521 0.0121002 1.2731C-0.0337859 1.59969 0.0519417 1.93112 0.250424 2.1945C0.448907 2.45787 0.743886 2.63161 1.07047 2.6775C2.88174 2.93284 3.70267 3.91365 5.1345 6.5554L9.68775 14.9675C9.69484 14.9807 9.70281 14.9935 9.71162 15.0056C10.2295 15.8838 10.9478 16.7835 12.3367 16.8599H12.3605H12.4321H12.4989H12.5705H12.5944C13.9904 16.7835 14.7087 15.8838 15.2194 15.0056C15.2282 14.9935 15.2362 14.9807 15.2433 14.9675L19.7965 6.5554C21.2475 3.91365 22.0779 2.93284 23.9035 2.6775Z" fill="#FFD31B"></path>
                                </svg>